<svg width="137" height="81" viewBox="0 0 137 81" fill="none" xmlns="http://www.w3.org/2000/svg">
<path d="M68.5 69.5V52.5L81.5 42V81L68.5 69.5Z" fill="black"/>
<path d="M0.5 81V42L13.5 52.5V69.5L0.5 81Z" fill="black"/>
<path d="M0.5 41.9459L0.5 24.6001L41.0295 57.7341L81.5 24.6001V41.9459L41.0295 74.7341L0.5 41.9459Z" fill="black"/>
<path d="M0.5 18.3458L0.5 1L41.0295 34.134L81.5 1V18.3458L41.0295 51.134L0.5 18.3458Z" fill="black"/>
<path d="M119.284 0L136.63 0L106.658 36.6393L98 26.5L119.284 0Z" fill="black"/>
<path d="M119.284 81L86.496 40.5295L95 30L103.496 40.5295L136.63 81H119.284Z" fill="black"/>
</svg>
