<svg width="137" height="81" viewBox="0 0 137 81" fill="none" xmlns="http://www.w3.org/2000/svg">
<path d="M68.5 69.5V52.5L81.5 42V81L68.5 69.5Z" fill="url(#paint0_linear_310_20)"/>
<path d="M0.5 81V42L13.5 52.5V69.5L0.5 81Z" fill="url(#paint1_linear_310_20)"/>
<path d="M0.5 41.9459L0.5 24.6001L41.0295 57.7341L81.5 24.6001V41.9459L41.0295 74.7341L0.5 41.9459Z" fill="url(#paint2_linear_310_20)"/>
<path d="M0.5 18.3458L0.5 1L41.0295 34.134L81.5 1V18.3458L41.0295 51.134L0.5 18.3458Z" fill="url(#paint3_linear_310_20)"/>
<path d="M119.284 0L136.63 0L106.658 36.6393L98 26.5L119.284 0Z" fill="url(#paint4_linear_310_20)"/>
<path d="M119.284 81L86.496 40.5295L95 30L103.496 40.5295L136.63 81H119.284Z" fill="url(#paint5_linear_310_20)"/>
<defs>
<linearGradient id="paint0_linear_310_20" x1="41" y1="42" x2="41" y2="69" gradientUnits="userSpaceOnUse">
<stop stop-color="#9A9A9A"/>
<stop offset="1" stop-color="#F8FFF8"/>
</linearGradient>
<linearGradient id="paint1_linear_310_20" x1="41" y1="42" x2="41" y2="69" gradientUnits="userSpaceOnUse">
<stop stop-color="#9A9A9A"/>
<stop offset="1" stop-color="#F8FFF8"/>
</linearGradient>
<linearGradient id="paint2_linear_310_20" x1="8" y1="42" x2="76" y2="43.5" gradientUnits="userSpaceOnUse">
<stop stop-color="#F8FFF8"/>
<stop offset="0.496803" stop-color="#9A9A9A"/>
<stop offset="1" stop-color="#F8FFF8"/>
</linearGradient>
<linearGradient id="paint3_linear_310_20" x1="-2.28743e-08" y1="18.5" x2="81" y2="19" gradientUnits="userSpaceOnUse">
<stop stop-color="#FF0000"/>
<stop offset="0.503657" stop-color="#75000B"/>
<stop offset="1" stop-color="#FF0000"/>
</linearGradient>
<linearGradient id="paint4_linear_310_20" x1="136.63" y1="18.3197" x2="98" y2="18.3197" gradientUnits="userSpaceOnUse">
<stop stop-color="#FF0000"/>
<stop offset="1" stop-color="#75000B"/>
</linearGradient>
<linearGradient id="paint5_linear_310_20" x1="126" y1="75.5" x2="104" y2="49" gradientUnits="userSpaceOnUse">
<stop stop-color="#9A9A9A"/>
<stop offset="1" stop-color="#F8FFF8"/>
</linearGradient>
</defs>
</svg>
